Patient4_TMGait_0pt4_02_left_33_EMG.mot
version=1
nRows=13
nColumns=33
inDegrees=no
endheader
time	1LAddLong	2LGlutMax	3LGlutMed	4LIliopsoas	5LSemiMemb	6LBicFemLong	7LRecFem	8LVastMed	9LVastLat	10LGasMed	11LTibAnt	12lTibPost	13LPeroneusLong	14LSol	15LExtDigLong	16LFlexDigLong	17RAddLong	18RGlutMax	19RGlutMed	20RIliopsoas	21RSemiMemb	22RBicFemLong	23RRecFem	24RVastMed	25RVastLat	26RGasMed	27RTibAnt	28RTibPost	29RPeroneusLong	30RSol	31RExtDigLong	32RFlexDigLong
45.538	0.001373	-0.011749	-0.008392	0.001373	-0.069427	-0.080719	-0.034027	0.013733	0.090942	-0.007629	-0.028992	-0.007019	0.02594	-0.077057	-0.014343	-0.001984	0.014954	-0.045624	0.32791	0.10757	-0.075226	-0.005493	-0.001678	-0.019379	-0.066986	-0.018005	0.007629	-0.007782	0.16068	-0.009766	-0.003357	-0.012817
45.539	0.022736	-0.005951	-0.036774	0.01358	-0.013123	-0.12283	-0.048065	0.009155	0.081482	-0.019684	-0.045319	-0.002289	0.058594	-0.10346	0.027466	-0.000916	0.029144	-0.082855	-0.021362	0.14023	-0.038757	-0.0383	0.019836	-0.010834	-0.1297	0.017853	-0.024109	-0.001984	0.28381	-0.064545	0.000916	-0.008698
45.54	0.013428	-0.008698	-0.039215	0.014801	0.053711	-0.086365	-0.039368	-0.001678	0.093079	-0.027008	-0.069885	-0.003662	0.03952	-0.088806	0.047607	-0.001678	0.036774	-0.044861	0.51224	0.058289	0.06485	-0.001984	0.045624	-0.05661	-0.15839	0.022736	0.24368	-0.002289	-0.75073	-0.00412	-0.003204	-0.024109
45.541	0.024109	-0.021057	-0.031891	0.014954	-0.001526	-0.043335	-0.062256	0.012054	0.084839	-0.014343	-0.040131	-0.004425	-0.002441	-0.068512	0.079346	-0.006866	0.018005	-0.10132	0.81314	-0.027008	0.034485	-0.014648	-0.049286	-0.052185	-0.086365	0.001526	0.093384	-0.001221	-0.40619	0.17242	-0.002136	-0.014801
45.542	0.027161	-0.002289	-0.045776	0.007782	0.007172	-0.027618	-0.044708	-0.006561	0.086517	-0.022125	-0.056152	0.003815	-0.013123	-0.07309	0.076294	-0.009766	-0.002289	-0.16296	0.57693	-0.014191	-0.005798	0.11368	-0.054626	-0.01236	0.015717	-0.000305	-0.17807	-0.000305	0.41458	0.18662	-0.002136	-0.024109
45.543	0.026855	0.010071	-0.043182	-0.004578	0.003204	-0.001526	-0.026855	0.008087	0.072479	-0.037689	-0.01236	-0.004425	0.054016	-0.054626	-0.014801	-0.003204	0.003052	-0.21011	0.35568	0.019073	-0.024872	0.13672	-0.025482	0.12207	0.10925	0.005951	-0.32288	-0.000153	1.5109	0.056458	-0.001831	-0.0177
45.544	0.02182	-0.001678	-0.044861	-0.013733	-0.006866	-0.025787	-0.023193	0.008087	0.087128	-0.037994	0.056915	0.000153	0.032654	-0.012207	0.010681	-0.023193	-0.006714	-0.23086	-0.18707	0.040741	0.036621	0.12863	0.013733	0.089417	0.082092	0.002594	-0.30548	-0.006561	-0.87524	-0.007629	-0.001373	-0.018463
45.545	0.022736	0.007019	-0.077515	-0.002136	-0.007019	-0.025787	-0.033875	0.000763	0.078278	-0.058289	0.024567	-0.003662	0.030365	0.001831	-0.04303	-0.024109	-0.013123	-0.17929	-0.14969	0.008087	0.13077	0.085754	0.012207	0.045013	0.019989	-0.010071	-0.041809	-0.005646	-0.53604	0.005951	-0.002747	-0.011597
45.546	0.019989	0.009918	-0.089722	0.010376	-0.008698	0.001221	-0.034485	0.011749	0.065155	-0.043488	0.16815	-0.003052	-0.012665	-0.013123	0.028534	-0.006409	-0.010071	-0.26489	-0.28015	0.002899	0.078583	0.086365	0.04303	0.048523	-0.048065	-0.001373	-0.10132	-0.002136	2.234	-0.03418	-0.002289	-0.020599
45.547	0.013275	0.014954	-0.027466	-0.006714	-0.003357	-0.011444	-0.034943	0.003967	0.060425	-0.020447	0.20309	0.009308	-0.055389	-0.053253	0.011444	0.002594	-0.021973	-0.18326	-0.4126	0.02655	0.021973	0.049591	-0.15091	0.055695	-0.08606	-0.000305	-0.10346	0.001068	0.89157	-0.033569	-0.002441	-0.01236
45.548	0.012512	-0.026093	-0.018311	-0.00351	-0.002747	-0.002899	-0.041046	0.008698	0.063019	-0.018921	0.068817	0.001678	-0.029755	-0.066986	-0.095978	-0.000916	-0.025024	-0.19257	-0.22781	0.041656	-0.018616	0.02594	0.056	0.010986	-0.093384	0.006866	-0.097656	-0.001526	-0.081635	-0.028381	-0.007935	-0.007324
45.549	0.009155	-0.039825	0.001526	0.005035	-0.010986	0.021057	-0.0177	0.014038	0.063324	-0.012817	0.015869	0	-0.034943	-0.080261	-0.24719	-0.001526	-0.014648	-0.19745	-0.058746	0.01358	0.039825	-0.042572	0.41885	-0.046234	-0.2385	-0.002899	-0.064087	-0.000763	-0.18326	0.020142	-0.002899	-0.013733
45.55	0.005798	-0.041351	-0.020905	0.002594	-0.012054	0.013123	-0.017242	0.003357	0.062408	-0.01709	-0.039368	0.013885	-0.021667	-0.086212	0.064545	-0.001678	0.001373	-0.16052	-0.39444	0.012512	0.043182	-0.03006	0.40741	-0.14877	-0.17685	0.007019	-0.10239	0.001068	-0.56686	-0.077972	0	-0.007935
